<svg xmlns="http://www.w3.org/2000/svg" width="400" height="842.10526316">
  <path fill-rule="evenodd" d="M142.306 8.13C-6.36 55.664-47.888 239.933 66.169 345.962c90.604 84.225 237.273 65.948 303.893-37.87C469.535 153.077 317.055-47.744 142.306 8.13m154.977 207.558c-19.524 97.623-158.944 110.575-186.872 17.36-9.941-33.18-16.609-30.943 92.221-30.943H300l-2.717 13.583M147.137 450.043C32.849 486.617 0 548.937 0 729.185v112.92h400V722.764c0-131.811-2.124-145.432-29.269-187.687-47.178-73.439-144.349-110.393-223.594-85.034m84.769 102.131c48.695 14.59 66.943 50.264 67 130.984l.041 57.895H105.263V684.74c0-107.538 46.771-156.496 126.643-132.566"/>
</svg>
