<svg xmlns="http://www.w3.org/2000/svg" width="400" height="281.69014085">
  <path fill-rule="evenodd" d="M148.558 4.296c-49.494 9.905-99.254 34.88-138.124 69.327L-.258 83.099l100.129 99.985L200 283.069l99.902-99.872C414.533 68.6 406.146 84.305 367.929 55.8 306.786 10.196 220.411-10.083 148.558 4.296m95.199 71.438c16.72 3.257 46.384 13.973 46.384 16.755 0 1.069-20.287 22.2-45.082 46.959l-45.081 45.015-45.764-45.818c-36.823-36.867-44.938-46.358-41.538-48.582 6.774-4.432 39.173-13.957 53.203-15.641 7.089-.851 13.279-1.936 13.754-2.411 1.767-1.768 50.452 1.059 64.124 3.723"/>
</svg>
