<svg xmlns="http://www.w3.org/2000/svg" width="400" height="355.96330275" fill="#3399cc">
  <path fill-rule="evenodd" d="M137.673 9.759c-31.85 6.824-72.522 25.372-102.417 46.704-39.29 28.037-45.75 15.554 65.819 127.181l98.706 98.757-69.615 1.001-69.616 1.002-1.055 33.945-1.055 33.945H337.615v-69.725H200.051l98.79-98.841C410.505 72.007 404.035 84.501 364.744 56.463 299.998 10.262 215.983-7.019 137.673 9.759m122.877 70.87c34.476 9.452 35.096 7.092-15.064 57.372l-45.378 45.487-44.812-44.705c-24.647-24.587-43.991-46.034-42.987-47.659C122.58 74.506 214.484 67.999 260.55 80.629"/>
</svg>
