<svg xmlns="http://www.w3.org/2000/svg" width="400" height="840.6779661" fill="#663399">
  <path fill-rule="evenodd" d="M181.921 2.545C45.719 13.202-38.22 159.754 21.189 283.172c62.204 129.225 243.73 149.461 332.596 37.078C461.773 183.683 356.401-11.108 181.921 2.545m-6.843 442.635C89.397 457.093 22.974 518.489 5.849 601.6c-2.99 14.513-3.589 35.717-3.589 127.118v109.7h395.744l-.776-114.689-.775-114.689-6.271-20.339c-29.643-96.137-120.398-156.69-215.104-143.521m67.193 106.638c46.463 22.187 58.247 50.322 58.277 139.142l.017 50.283H99.112l.791-61.582c.903-70.381 1.919-75.189 21.005-99.433 29.045-36.895 79.072-48.606 121.363-28.41"/>
</svg>
